<svg width="40" height="68" viewBox="0 0 40 68" fill="none" xmlns="http://www.w3.org/2000/svg">
<g clip-path="url(#clip0_5075_1960)">
<path d="M20.2332 0.0376245C24.8582 0.0376245 29.4833 0.126847 34.1084 0.00416605C36.5409 -0.0627509 37.5915 0.662183 37.5344 3.21618C37.3974 10.1979 37.4202 17.1907 37.5344 24.1723C37.5687 26.481 36.7693 27.4513 34.3597 27.3397C31.6646 27.2059 28.9694 27.3063 26.2743 27.3174C25.0067 27.3174 23.7277 27.1725 23.6706 29.0684C23.6249 30.6521 24.253 31.1652 25.8404 31.299C27.5419 31.444 29.2778 31.8343 30.0886 33.7303C30.4883 34.6672 31.5161 34.4999 32.3612 34.6002C35.5473 34.9683 37.3174 36.842 37.4887 40.0094C37.5344 40.9462 37.4887 41.8942 37.5002 42.8422C37.523 45.2512 37.1918 47.6379 39.1903 49.7012C40.2638 50.8053 40.241 52.534 39.2931 53.9392C38.4594 55.1772 37.169 55.4895 35.7415 55.2553C34.234 55.0099 33.4004 54.0173 32.9778 52.6678C32.4525 50.9949 33.5032 49.7569 34.3939 48.5636C35.7415 46.7457 36.2097 39.9536 35.0106 38.0576C33.743 36.0724 31.3791 35.7936 29.7917 37.6673C27.8046 40.0094 25.2237 39.2175 22.8141 39.1283C21.7178 39.0948 21.7977 37.9349 21.7863 37.0873C21.7863 34.4441 21.752 31.8009 21.7863 29.1577C21.7977 27.8528 21.261 27.3063 19.902 27.3286C18.4973 27.3509 18.406 28.1874 18.406 29.2023C18.406 31.7563 18.3146 34.2991 18.4288 36.8531C18.5087 38.7268 17.7436 39.3625 15.8821 39.2956C13.2213 39.1952 10.5604 39.6413 8.63046 36.92C7.69402 35.604 4.78193 37.0204 4.74767 39.1171C4.69057 42.5299 3.25165 46.1657 6.15233 49.3331C7.24865 50.5265 7.38569 52.3332 6.43783 53.8723C5.55849 55.2776 4.11957 55.4226 2.60072 55.1772C1.17322 54.943 0.545121 53.9392 0.145421 52.6901C-0.208598 51.5748 0.111161 50.4484 0.80778 49.7792C3.16029 47.4594 2.6464 44.6043 2.65782 41.8384C2.69208 36.8197 3.1603 36.1616 7.911 34.5222C8.33354 34.3772 8.87028 34.1207 9.053 33.7638C10.1722 31.4886 12.2849 31.2767 14.4318 31.2655C15.9963 31.2655 16.4303 30.4848 16.396 29.1465C16.3618 27.8416 15.7223 27.3174 14.3975 27.3397C11.4169 27.3844 8.4249 27.2951 5.44429 27.3621C3.51431 27.4067 2.63498 26.6929 2.65782 24.7077C2.71492 17.3468 2.71492 9.97479 2.65782 2.61393C2.62356 0.528349 3.60567 -0.00698678 5.48997 0.0153189C10.4006 0.0822358 15.3111 0.0376245 20.2332 0.0376245ZM17.7208 13.9675C17.7208 12.5623 17.7893 11.1458 17.7093 9.74058C17.5723 7.18659 15.7908 5.30176 13.4611 5.25715C10.8574 5.21254 9.08726 6.65125 8.83602 9.01565C8.49342 12.2723 8.52768 15.5958 8.81318 18.8636C9.04158 21.3618 11.3941 22.9901 13.7009 22.6333C16.2019 22.2429 17.5723 20.6815 17.6979 18.1944C17.7779 16.7892 17.7093 15.3728 17.7093 13.9675H17.7208ZM31.5618 13.3987C31.4818 12.2946 31.5275 10.4878 31.1735 8.75914C30.6824 6.29436 28.9238 5.01179 26.3885 5.30176C24.0132 5.56943 22.5857 7.08621 22.4943 9.46176C22.3801 12.4619 22.3801 15.4731 22.4943 18.4732C22.5857 20.86 24.0474 22.3544 26.4114 22.611C28.7867 22.8675 30.4084 21.6741 31.1507 19.3878C31.7217 17.6368 31.3791 15.8412 31.5618 13.3987Z" fill="currentColor"/>
<path d="M19.7078 42.9766C25.7947 42.9766 26.3542 43.5677 25.2579 49.7017C24.9953 51.1516 25.098 52.4453 25.2922 53.8506C25.6919 56.7057 25.9203 59.427 30.0201 59.3824C31.5275 59.3712 32.8179 60.5534 33.6173 61.9587C34.3368 63.219 35.0334 64.5796 34.4053 65.9849C33.6973 67.5574 32.0528 66.9663 30.7852 66.9775C23.7733 66.9998 24.7554 67.5686 24.5841 61.2115C24.5156 58.9809 23.8761 56.7615 23.4992 54.5421C22.8255 50.6163 22.5057 50.4601 18.4859 50.5828C16.7615 50.6386 16.0877 51.4416 15.7679 52.8803C14.9799 56.3711 13.9521 59.8397 14.3518 63.4755C14.6602 66.2414 13.3697 67.2897 10.6404 67.0221C9.58972 66.9217 8.51624 67.0221 7.4656 66.9998C4.41647 66.9663 3.46861 65.6391 4.65629 62.8844C5.63841 60.6204 7.5227 59.1482 9.978 59.0813C12.1478 59.0255 12.5932 57.9437 13.1299 56.2484C14.1349 53.1034 13.6781 49.9583 13.6552 46.802C13.621 43.0212 13.6552 43.01 17.3896 42.9989C18.1661 42.9989 18.9313 42.9989 19.7078 42.9989V42.9766Z" fill="currentColor"/>
</g>
<defs>
<clipPath id="clip0_5075_1960">
<rect width="40" height="68" fill="white"/>
</clipPath>
</defs>
</svg>
