<svg width="168" height="27" viewBox="0 0 168 27" fill="none" xmlns="http://www.w3.org/2000/svg">
<g clip-path="url(#clip0_78_712)">
<path d="M7.76765 0.0177163C9.5428 0.0177163 11.318 0.0527811 13.0931 0.00456696C14.0267 -0.0217317 14.43 0.26317 14.4081 1.2669C14.3555 4.01072 14.3642 6.75893 14.4081 9.50275C14.4212 10.4101 14.1144 10.7914 13.1895 10.7476C12.1551 10.695 11.1207 10.7344 10.0863 10.7388C9.59978 10.7388 9.10888 10.6818 9.08696 11.4269C9.06943 12.0493 9.3105 12.251 9.91975 12.3036C10.5728 12.3605 11.2391 12.5139 11.5503 13.2591C11.7037 13.6273 12.0982 13.5615 12.4225 13.601C13.6454 13.7456 14.3248 14.482 14.3905 15.7268C14.4081 16.0949 14.3905 16.4675 14.3949 16.8401C14.4037 17.7868 14.2766 18.7248 15.0436 19.5357C15.4556 19.9696 15.4468 20.649 15.083 21.2013C14.7631 21.6878 14.2678 21.8105 13.7199 21.7185C13.1413 21.622 12.8214 21.2319 12.6592 20.7016C12.4576 20.0441 12.8608 19.5576 13.2027 19.0886C13.7199 18.3742 13.8996 15.7048 13.4394 14.9597C12.9529 14.1795 12.0456 14.0699 11.4363 14.8063C10.6736 15.7268 9.68306 15.4156 8.75823 15.3805C8.33745 15.3673 8.36813 14.9115 8.36375 14.5784C8.36375 13.5396 8.3506 12.5008 8.36375 11.462C8.36813 10.9492 8.16213 10.7344 7.64054 10.7432C7.10142 10.7519 7.06635 11.0807 7.06635 11.4795C7.06635 12.4833 7.03129 13.4826 7.07512 14.4863C7.1058 15.2227 6.81213 15.4725 6.09768 15.4462C5.07642 15.4068 4.05516 15.5821 3.31441 14.5126C2.955 13.9954 1.83731 14.5521 1.82416 15.3761C1.80224 16.7173 1.24997 18.1462 2.36328 19.391C2.78406 19.86 2.83666 20.5701 2.47286 21.175C2.13536 21.7272 1.58309 21.7842 1.00013 21.6878C0.452247 21.5957 0.211176 21.2013 0.0577674 20.7104C-0.0781089 20.272 0.044618 19.8293 0.311987 19.5664C1.21491 18.6547 1.01767 17.5326 1.02205 16.4456C1.0352 14.4732 1.21491 14.2146 3.03828 13.5703C3.20045 13.5133 3.40646 13.4125 3.47659 13.2722C3.90613 12.3781 4.71701 12.2948 5.54103 12.2904C6.14152 12.2904 6.30807 11.9836 6.29492 11.4576C6.28177 10.9448 6.03632 10.7388 5.52788 10.7476C4.38389 10.7651 3.23552 10.73 2.09153 10.7563C1.35078 10.7739 1.01328 10.4933 1.02205 9.71314C1.04397 6.82029 1.04397 3.92306 1.02205 1.03021C1.0089 0.210573 1.38585 0.000183857 2.10906 0.00895006C3.99379 0.0352487 5.87853 0.0177163 7.76765 0.0177163ZM6.80336 5.49221C6.80336 4.93994 6.82966 4.38329 6.79898 3.83102C6.74638 2.82729 6.06262 2.08654 5.16847 2.06901C4.16912 2.05148 3.48974 2.6169 3.39331 3.54612C3.26182 4.82598 3.27497 6.13215 3.38454 7.4164C3.47221 8.39821 4.37512 9.03815 5.26051 8.89789C6.22041 8.74448 6.74638 8.13084 6.7946 7.15341C6.82528 6.60114 6.79898 6.04448 6.79898 5.49221H6.80336ZM12.1157 5.26868C12.085 4.83475 12.1025 4.12468 11.9667 3.4453C11.7782 2.47664 11.1032 1.97258 10.1301 2.08654C9.21846 2.19174 8.67057 2.78784 8.6355 3.72144C8.59167 4.90049 8.59167 6.08393 8.6355 7.26299C8.67057 8.20097 9.2316 8.78831 10.1389 8.88912C11.0506 8.98993 11.673 8.52094 11.9579 7.6224C12.1771 6.93425 12.0456 6.22858 12.1157 5.26868Z" fill="#302C45"/>
<path d="M7.56501 16.8926C9.9012 16.8926 10.116 17.1249 9.6952 19.5356C9.59439 20.1054 9.63383 20.6138 9.70835 21.1661C9.86176 22.2882 9.94942 23.3577 11.523 23.3401C12.1015 23.3357 12.5968 23.8004 12.9036 24.3526C13.1798 24.8479 13.4471 25.3826 13.2061 25.9349C12.9343 26.5529 12.3031 26.3206 11.8166 26.325C9.12539 26.3338 9.50234 26.5573 9.43659 24.059C9.4103 23.1823 9.16484 22.3101 9.0202 21.4379C8.7616 19.895 8.63887 19.8336 7.09602 19.8819C6.43417 19.9038 6.17557 20.2194 6.05284 20.7848C5.7504 22.1567 5.35592 23.5198 5.50933 24.9487C5.62768 26.0357 5.13239 26.4477 4.08482 26.3425C3.68158 26.3031 3.26957 26.3426 2.86632 26.3338C1.69603 26.3206 1.33223 25.799 1.78808 24.7164C2.16502 23.8266 2.88824 23.2481 3.8306 23.2218C4.66339 23.1999 4.83434 22.7747 5.04034 22.1085C5.42605 20.8724 5.25073 19.6364 5.24196 18.396C5.22881 16.9101 5.24196 16.9057 6.67524 16.9013C6.97329 16.9013 7.26696 16.9013 7.56501 16.9013V16.8926Z" fill="#302C45"/>
<path d="M31.8395 14.5085C33.1193 14.5085 34.2721 14.846 35.2977 15.521V14.9687C35.2977 14.0088 35.0698 13.3119 34.6184 12.8823C34.1844 12.4309 33.562 12.2073 32.7555 12.2073C31.6335 12.2073 30.3404 12.6281 28.8853 13.4653L27.5835 10.7039C29.4375 9.53803 31.4055 8.95508 33.4963 8.95508C35.587 8.95508 37.2 9.66076 38.344 11.0721C39.0321 11.9531 39.3784 13.2418 39.3784 14.938V23.4062H35.4774L35.3898 22.2403C34.4036 23.244 33.1237 23.7437 31.5458 23.7437C30.1257 23.7437 28.9554 23.3185 28.0262 22.4726C27.1013 21.6222 26.6367 20.4914 26.6367 19.08C26.6367 17.7914 27.1101 16.7088 28.0568 15.8278C29.0036 14.9468 30.2659 14.5085 31.8395 14.5085ZM34.5614 20.4125C35.0523 20.075 35.3021 19.6104 35.3021 19.0187C35.3021 18.427 35.0479 17.9492 34.5351 17.5898C34.0222 17.2304 33.4524 17.0507 32.8213 17.0507C32.1901 17.0507 31.6291 17.226 31.1951 17.5723C30.7612 17.9185 30.5464 18.3919 30.5464 18.9836C30.5464 19.5753 30.7568 20.0487 31.182 20.395C31.6072 20.7412 32.1419 20.9166 32.795 20.9166C33.4831 20.9166 34.0748 20.7456 34.5701 20.4081L34.5614 20.4125Z" fill="#302C45"/>
<path d="M54.7485 23.4062H50.5801V15.4596C50.5801 14.5611 50.4793 13.8948 50.2865 13.4653C49.9314 12.6895 49.2915 12.2994 48.3667 12.2994C47.3235 12.2994 46.6134 12.7508 46.2365 13.6494C46.0612 14.057 45.9691 14.6224 45.9691 15.3369V23.4062H41.8008V9.29258H45.6448L45.7631 10.7039L45.8201 10.7346C46.8457 9.5468 48.2746 8.95508 50.1068 8.95508C51.3691 8.95508 52.421 9.35394 53.2714 10.1517C54.2576 11.094 54.7485 12.7684 54.7485 15.1835V23.4062Z" fill="#302C45"/>
<path d="M56.5835 16.3492C56.5835 14.0788 57.1839 12.2773 58.3849 10.9492C59.5859 9.62116 61.0761 8.95493 62.8469 8.95493C64.4643 8.95493 65.8406 9.57733 66.9846 10.8265L67.0415 10.7958V1.40723H71.1792V23.406H67.3045L67.1862 21.8719L67.1248 21.8413C66.0203 23.108 64.6221 23.7435 62.9258 23.7435C61.1331 23.7435 59.6253 23.0861 58.4025 21.7624C57.1796 20.443 56.5703 18.6372 56.5703 16.3492H56.5835ZM60.7825 16.3185C60.7825 17.5458 61.0718 18.532 61.6547 19.2771C62.2377 20.0223 63.0003 20.3992 63.9471 20.3992C64.8938 20.3992 65.6214 20.0223 66.1956 19.264C66.7654 18.5057 67.0547 17.5239 67.0547 16.3185C67.0547 15.1132 66.7654 14.1401 66.1825 13.4038C65.5995 12.6674 64.8588 12.2992 63.9515 12.2992C62.9653 12.2992 62.1938 12.6674 61.6328 13.4038C61.0718 14.1401 60.7912 15.1132 60.7912 16.3185H60.7825Z" fill="#302C45"/>
<path d="M82.3907 13.2812C81.6017 12.9744 80.9223 12.821 80.3525 12.821C79.4847 12.821 78.8404 13.1366 78.4152 13.7721C77.99 14.4077 77.7797 15.2667 77.7797 16.3494V23.4062H73.6113V9.29258H77.5123L77.5999 11.0414H77.6569C78.722 9.65199 79.9318 8.95508 81.2949 8.95508C81.9042 8.95508 82.5266 9.10849 83.1577 9.4153L82.3907 13.2812Z" fill="#302C45"/>
<path d="M85.3755 21.6437C83.9948 20.2411 83.3066 18.4659 83.3066 16.3182C83.3066 14.1705 83.9904 12.4041 85.3623 11.0234C86.7298 9.64273 88.5225 8.9502 90.7272 8.9502C92.9319 8.9502 94.6939 9.64273 96.0615 11.0234C97.429 12.4041 98.1172 14.1705 98.1172 16.3182C98.1172 18.4659 97.4334 20.2411 96.0615 21.6437C94.6896 23.0463 92.9144 23.7432 90.7272 23.7432C88.5401 23.7432 86.7561 23.0419 85.3755 21.6437ZM88.3604 19.2636C88.9521 20.0219 89.741 20.3989 90.7272 20.3989C91.7134 20.3989 92.498 20.0219 93.0766 19.2636C93.6595 18.5054 93.9488 17.5235 93.9488 16.3182C93.9488 15.1128 93.6595 14.1661 93.0766 13.4166C92.4936 12.6715 91.7134 12.2989 90.7272 12.2989C89.741 12.2989 88.9521 12.6715 88.3604 13.4166C87.7686 14.1617 87.475 15.1304 87.475 16.3182C87.475 17.506 87.7686 18.5054 88.3604 19.2636Z" fill="#302C45"/>
<path d="M99.9492 9.29258H103.824L103.942 10.8573C104.946 9.59063 106.357 8.95508 108.168 8.95508C108.956 8.95508 109.688 9.12602 110.368 9.46352C111.047 9.80102 111.586 10.2744 111.981 10.888C112.472 10.2963 113.125 9.82293 113.931 9.47667C114.738 9.1304 115.597 8.95508 116.504 8.95508C117.863 8.95508 119.038 9.37586 120.024 10.213C120.576 10.7039 120.949 11.3439 121.146 12.1328C121.343 12.9218 121.44 14.0088 121.44 15.4026V23.4106H117.271V15.0344C117.271 13.2155 116.544 12.3038 115.084 12.3038C114.413 12.3038 113.861 12.5185 113.427 12.9481C112.993 13.3776 112.779 13.9693 112.779 14.7276V23.4106H108.61V15.0344C108.61 13.2155 107.9 12.3038 106.48 12.3038C105.77 12.3038 105.2 12.5536 104.766 13.0533C104.332 13.553 104.118 14.2674 104.118 15.1879V23.4106H99.9492V9.29258Z" fill="#302C45"/>
<path d="M130.721 20.7062C132.08 20.7062 133.185 20.0224 134.031 18.6505L136.866 20.0925C136.297 21.2585 135.438 22.157 134.294 22.7925C133.15 23.4281 131.887 23.7437 130.511 23.7437C128.482 23.7437 126.768 23.0687 125.365 21.7187C123.963 20.3687 123.266 18.5672 123.266 16.3187C123.266 14.2323 123.945 12.4835 125.304 11.0721C126.663 9.66076 128.398 8.95508 130.507 8.95508C132.615 8.95508 134.399 9.68267 135.679 11.1335C136.958 12.5843 137.598 14.4778 137.598 16.8096V17.3619H127.43C127.508 18.3218 127.859 19.1195 128.477 19.755C129.1 20.3906 129.84 20.7062 130.708 20.7062H130.721ZM130.485 12.0846C129.696 12.0846 129.029 12.3345 128.49 12.8341C127.947 13.3338 127.609 14.0044 127.469 14.846H133.413C133.272 13.9036 132.939 13.2111 132.409 12.7596C131.878 12.3082 131.234 12.0846 130.489 12.0846H130.485Z" fill="#302C45"/>
<path d="M138.822 16.3492C138.822 14.0788 139.423 12.2773 140.624 10.9492C141.825 9.62116 143.315 8.95493 145.086 8.95493C146.703 8.95493 148.079 9.57733 149.223 10.8265L149.285 10.7958V1.40723H153.422V23.406H149.552L149.434 21.8719L149.377 21.8413C148.272 23.108 146.874 23.7435 145.178 23.7435C143.385 23.7435 141.877 23.0861 140.654 21.7624C139.432 20.443 138.822 18.6372 138.822 16.3492ZM143.021 16.3185C143.021 17.5458 143.311 18.532 143.894 19.2771C144.476 20.0223 145.239 20.3992 146.186 20.3992C147.133 20.3992 147.86 20.0223 148.434 19.264C149.004 18.5057 149.293 17.5239 149.293 16.3185C149.293 15.1132 149.004 14.1401 148.421 13.4038C147.838 12.6674 147.098 12.2992 146.19 12.2992C145.204 12.2992 144.433 12.6674 143.872 13.4038C143.311 14.1401 143.03 15.1132 143.03 16.3185H143.021Z" fill="#302C45"/>
<path d="M160.463 14.5085C161.742 14.5085 162.895 14.846 163.921 15.521V14.9687C163.921 14.0088 163.693 13.3119 163.241 12.8823C162.807 12.4309 162.185 12.2073 161.379 12.2073C160.257 12.2073 158.963 12.6281 157.508 13.4653L156.207 10.7039C158.061 9.53803 160.029 8.95508 162.119 8.95508C164.21 8.95508 165.823 9.66076 166.967 11.0721C167.655 11.9531 168.001 13.2418 168.001 14.938V23.4062H164.1L164.013 22.2403C163.027 23.244 161.747 23.7437 160.169 23.7437C158.749 23.7437 157.578 23.3185 156.649 22.4726C155.724 21.6222 155.26 20.4914 155.26 19.08C155.26 17.7914 155.733 16.7088 156.68 15.8278C157.627 14.9468 158.889 14.5085 160.463 14.5085ZM163.184 20.4125C163.675 20.075 163.925 19.6104 163.925 19.0187C163.925 18.427 163.671 17.9492 163.158 17.5898C162.645 17.2304 162.075 17.0507 161.444 17.0507C160.813 17.0507 160.252 17.226 159.818 17.5723C159.384 17.9185 159.17 18.3919 159.17 18.9836C159.17 19.5753 159.38 20.0487 159.805 20.395C160.23 20.7412 160.765 20.9166 161.418 20.9166C162.106 20.9166 162.698 20.7456 163.193 20.4081L163.184 20.4125Z" fill="#302C45"/>
</g>
<defs>
<clipPath id="clip0_78_712">
<rect width="168" height="26.36" fill="white"/>
</clipPath>
</defs>
</svg>
