<svg width="27" height="27" viewBox="0 0 15 27" fill="none" xmlns="http://www.w3.org/2000/svg">
<path d="M7.76765 0.0177163C9.5428 0.0177163 11.318 0.0527811 13.0931 0.00456696C14.0267 -0.0217317 14.43 0.26317 14.4081 1.2669C14.3555 4.01072 14.3642 6.75893 14.4081 9.50275C14.4212 10.4101 14.1144 10.7914 13.1895 10.7476C12.1551 10.695 11.1207 10.7344 10.0863 10.7388C9.59978 10.7388 9.10888 10.6818 9.08696 11.4269C9.06943 12.0493 9.3105 12.251 9.91975 12.3036C10.5728 12.3605 11.2391 12.5139 11.5503 13.2591C11.7037 13.6273 12.0982 13.5615 12.4225 13.601C13.6454 13.7456 14.3248 14.482 14.3905 15.7268C14.4081 16.0949 14.3905 16.4675 14.3949 16.8401C14.4037 17.7868 14.2766 18.7248 15.0436 19.5357C15.4556 19.9696 15.4468 20.649 15.083 21.2013C14.7631 21.6878 14.2678 21.8105 13.7199 21.7185C13.1413 21.622 12.8214 21.2319 12.6592 20.7016C12.4576 20.0441 12.8608 19.5576 13.2027 19.0886C13.7199 18.3742 13.8996 15.7048 13.4394 14.9597C12.9529 14.1795 12.0456 14.0699 11.4363 14.8063C10.6736 15.7268 9.68306 15.4156 8.75823 15.3805C8.33745 15.3673 8.36813 14.9115 8.36375 14.5784C8.36375 13.5396 8.3506 12.5008 8.36375 11.462C8.36813 10.9492 8.16213 10.7344 7.64054 10.7432C7.10142 10.7519 7.06635 11.0807 7.06635 11.4795C7.06635 12.4833 7.03129 13.4826 7.07512 14.4863C7.1058 15.2227 6.81213 15.4725 6.09768 15.4462C5.07642 15.4068 4.05516 15.5821 3.31441 14.5126C2.955 13.9954 1.83731 14.5521 1.82416 15.3761C1.80224 16.7173 1.24997 18.1462 2.36328 19.391C2.78406 19.86 2.83666 20.5701 2.47286 21.175C2.13536 21.7272 1.58309 21.7842 1.00013 21.6878C0.452247 21.5957 0.211176 21.2013 0.0577674 20.7104C-0.0781089 20.272 0.044618 19.8293 0.311987 19.5664C1.21491 18.6547 1.01767 17.5326 1.02205 16.4456C1.0352 14.4732 1.21491 14.2146 3.03828 13.5703C3.20045 13.5133 3.40646 13.4125 3.47659 13.2722C3.90613 12.3781 4.71701 12.2948 5.54103 12.2904C6.14152 12.2904 6.30807 11.9836 6.29492 11.4576C6.28177 10.9448 6.03632 10.7388 5.52788 10.7476C4.38389 10.7651 3.23552 10.73 2.09153 10.7563C1.35078 10.7739 1.01328 10.4933 1.02205 9.71314C1.04397 6.82029 1.04397 3.92306 1.02205 1.03021C1.0089 0.210573 1.38585 0.000183857 2.10906 0.00895006C3.99379 0.0352487 5.87853 0.0177163 7.76765 0.0177163ZM6.80336 5.49221C6.80336 4.93994 6.82966 4.38329 6.79898 3.83102C6.74638 2.82729 6.06262 2.08654 5.16847 2.06901C4.16912 2.05148 3.48974 2.6169 3.39331 3.54612C3.26182 4.82598 3.27497 6.13215 3.38454 7.4164C3.47221 8.39821 4.37512 9.03815 5.26051 8.89789C6.22041 8.74448 6.74638 8.13084 6.7946 7.15341C6.82528 6.60114 6.79898 6.04448 6.79898 5.49221H6.80336ZM12.1157 5.26868C12.085 4.83475 12.1025 4.12468 11.9667 3.4453C11.7782 2.47664 11.1032 1.97258 10.1301 2.08654C9.21846 2.19174 8.67057 2.78784 8.6355 3.72144C8.59167 4.90049 8.59167 6.08393 8.6355 7.26299C8.67057 8.20097 9.2316 8.78831 10.1389 8.88912C11.0506 8.98993 11.673 8.52094 11.9579 7.6224C12.1771 6.93425 12.0456 6.22858 12.1157 5.26868Z" fill="#302C45"/>
<path d="M7.56501 16.8926C9.9012 16.8926 10.116 17.1249 9.6952 19.5356C9.59439 20.1054 9.63383 20.6138 9.70835 21.1661C9.86176 22.2882 9.94942 23.3577 11.523 23.3401C12.1015 23.3357 12.5968 23.8004 12.9036 24.3526C13.1798 24.8479 13.4471 25.3826 13.2061 25.9349C12.9343 26.5529 12.3031 26.3206 11.8166 26.325C9.12539 26.3338 9.50234 26.5573 9.43659 24.059C9.4103 23.1823 9.16484 22.3101 9.0202 21.4379C8.7616 19.895 8.63887 19.8336 7.09602 19.8819C6.43417 19.9038 6.17557 20.2194 6.05284 20.7848C5.7504 22.1567 5.35592 23.5198 5.50933 24.9487C5.62768 26.0357 5.13239 26.4477 4.08482 26.3425C3.68158 26.3031 3.26957 26.3426 2.86632 26.3338C1.69603 26.3206 1.33223 25.799 1.78808 24.7164C2.16502 23.8266 2.88824 23.2481 3.8306 23.2218C4.66339 23.1999 4.83434 22.7747 5.04034 22.1085C5.42605 20.8724 5.25073 19.6364 5.24196 18.396C5.22881 16.9101 5.24196 16.9057 6.67524 16.9013C6.97329 16.9013 7.26696 16.9013 7.56501 16.9013V16.8926Z" fill="#302C45"/>
</svg>